<svg xmlns="http://www.w3.org/2000/svg" xmlns:xlink="http://www.w3.org/1999/xlink" width="64.66mm" height="94.261" viewBox="0 0 183.3 70.69"><defs><radialGradient id="a" cx="6349.26" cy="28.61" r="28.61" gradientTransform="translate(-6304.07)" gradientUnits="userSpaceOnUse"><stop offset=".43" stop-color="#e400e0"/><stop offset=".51" stop-color="#e404e0"/><stop offset=".58" stop-color="#e60ee2"/><stop offset=".65" stop-color="#e721e4"/><stop offset=".72" stop-color="#ea3ae7"/><stop offset=".79" stop-color="#ee5beb"/><stop offset=".85" stop-color="#f284f0"/><stop offset=".92" stop-color="#f7b4f6"/><stop offset=".98" stop-color="#fdeafd"/><stop offset="1" stop-color="#fff"/></radialGradient><radialGradient id="c" cx="6344.09" cy="28.61" r="28.61" xlink:href="#a"/><radialGradient id="b" cx="6327.72" cy="28.61" r="21.54" gradientTransform="translate(-6304.07)" gradientUnits="userSpaceOnUse"><stop offset="0" stop-color="#70f2e5"/><stop offset=".42" stop-color="#72f2e5"/><stop offset=".57" stop-color="#79f3e7"/><stop offset=".68" stop-color="#84f4e9"/><stop offset=".76" stop-color="#95f5ec"/><stop offset=".84" stop-color="#abf7f0"/><stop offset=".9" stop-color="#c7faf5"/><stop offset=".96" stop-color="#e6fdfa"/><stop offset="1" stop-color="#fff"/></radialGradient><radialGradient id="d" cx="6325.61" cy="28.61" r="21.54" xlink:href="#b"/></defs><g data-name="Laag 1"><circle cx="45.18" cy="28.61" r="28.61" style="mix-blend-mode:multiply" fill="url(#a)"/><circle cx="40.02" cy="28.61" r="28.61" style="mix-blend-mode:multiply" fill="url(#c)"/><circle cx="23.65" cy="28.61" r="21.54" style="mix-blend-mode:multiply" fill="url(#b)"/><circle cx="21.54" cy="28.61" r="21.54" style="mix-blend-mode:multiply" fill="url(#d)"/><circle cx="38.56" cy="28.61" r="13.96" style="mix-blend-mode:multiply" fill="#89f2e5"/><path fill="#fff" d="M45.07 21.51h-9.88l-3.26 4.51V15.56h-8.64v25.65h8.64v-4.55l3.26 4.52h9.88l-7.1-9.84 7.1-9.83z"/><path d="M23.29 58.34h3.1v6.15l2.4-3h3.51l-3.07 3.61 3.15 5.38H29l-1.78-3-.8.94v2.11h-3.1zm10.33 0h3.24v2.33h-3.24zm.07 3.14h3.1v9h-3.1zm5.31 0h3.1v1.27a3.28 3.28 0 012.65-1.47c1.88 0 3 1.27 3 3.31v5.88h-3.1V65.6c0-1-.5-1.51-1.24-1.51s-1.31.53-1.31 1.51v4.87H39zM49.1 66c0-2.93 1.8-4.71 3.89-4.71a3.36 3.36 0 012.71 1.3v-4.25h3.1v12.13h-3.1v-1.19a3.24 3.24 0 01-2.7 1.39c-2.08 0-3.9-1.77-3.9-4.67zm6.65 0a1.82 1.82 0 10-3.61 0 1.82 1.82 0 103.61 0zm4.52 0a4.48 4.48 0 014.46-4.71c3 0 4.46 2.28 4.46 4.92v.65h-5.93a1.83 1.83 0 001.91 1.48 2.64 2.64 0 002-.91l1.71 1.44A4.57 4.57 0 0165 70.69 4.49 4.49 0 0160.27 66zm6-.78c-.11-1-.68-1.63-1.53-1.63s-1.38.65-1.54 1.63zm4.37-3.74h3.1v1.81a2.73 2.73 0 012.8-2v3.33h-.27c-1.61 0-2.53.94-2.53 3v2.79h-3.1z" fill="#1c1c1b"/><path d="M88.59 61.48h3.16v1.23a3.29 3.29 0 012.67-1.43A2.74 2.74 0 0197 62.74a3.78 3.78 0 013-1.46c1.91 0 3.07 1.2 3.07 3.29v5.89h-3.14v-4.88c0-1-.49-1.5-1.23-1.5s-1.3.52-1.3 1.5v4.88h-3.15v-4.88c0-1-.48-1.5-1.23-1.5s-1.27.52-1.27 1.5v4.88h-3.16zM111.72 66a1.84 1.84 0 10-3.66 0 1.84 1.84 0 103.66 0m-3.6 3.38v1.1H105V58.34h3.15v4.33a3.32 3.32 0 012.72-1.39c2.15 0 4 1.78 4 4.65 0 2.92-1.84 4.69-4 4.69a3.39 3.39 0 01-2.74-1.29m8.28-1.98v-5.87h3.15v4.86c0 1 .52 1.51 1.28 1.51s1.31-.53 1.31-1.51v-4.86h3.15v9h-3.15v-1.25a3.31 3.31 0 01-2.69 1.42c-1.91 0-3-1.26-3-3.3m17.2-1.35a1.84 1.84 0 10-3.67 0 1.85 1.85 0 103.67 0m-6.76 0c0-2.92 1.83-4.7 3.95-4.7a3.45 3.45 0 012.76 1.29v-4.25h3.15v12.12h-3.15v-1.2a3.33 3.33 0 01-2.74 1.39c-2.12 0-4-1.77-4-4.64m11.31 3.32l1.17-1.91a5.85 5.85 0 003.09 1c.55 0 .8-.17.8-.48 0-.35-.5-.5-1.45-.76-1.77-.48-3.18-1.06-3.18-2.87 0-1.91 1.52-3 3.6-3a7.06 7.06 0 013.7 1l-1.08 2a6.13 6.13 0 00-2.66-.83c-.48 0-.73.19-.73.44 0 .35.52.51 1.46.79 1.78.5 3.19 1.12 3.19 2.86 0 2-1.48 3-3.67 3a7.24 7.24 0 01-4.24-1.32m9.48-7.77h3.15v1.23a3.29 3.29 0 012.67-1.43 2.76 2.76 0 012.59 1.46 3.76 3.76 0 013-1.46c1.91 0 3.07 1.2 3.07 3.29v5.89H159v-4.88c0-1-.48-1.5-1.23-1.5s-1.29.52-1.29 1.5v4.88h-3.16v-4.88c0-1-.48-1.5-1.22-1.5s-1.28.52-1.28 1.5v4.88h-3.15zm21.68 5.72v-.41a3.31 3.31 0 00-1.22-.23c-.92 0-1.45.44-1.45 1.11a1 1 0 001.11 1 1.44 1.44 0 001.56-1.48m-5.7.68c0-1.86 1.41-2.82 3.51-2.82a7 7 0 012.16.35v-.15c0-.93-.58-1.46-1.79-1.46a6.19 6.19 0 00-2.47.5L164.4 62a9.09 9.09 0 013.63-.69 4.64 4.64 0 013.42 1.09 3.76 3.76 0 011 2.86v5.16h-3.12v-.93a3.37 3.37 0 01-2.63 1.12 2.72 2.72 0 01-3-2.77m10.71-6.36h3.15v1.26a3.32 3.32 0 012.69-1.46c1.9 0 3.05 1.26 3.05 3.3v5.88h-3.15v-4.87c0-1-.52-1.51-1.26-1.51a1.33 1.33 0 00-1.33 1.51v4.87h-3.15zM84.12 66a2 2 0 00-1.91-2 1.88 1.88 0 00-1.88 2 2 2 0 001.91 2 1.88 1.88 0 001.88-2m-6.86 0a5 5 0 019.93 0 5 5 0 01-9.93 0" fill="#222221"/></g></svg>